<svg xmlns="http://www.w3.org/2000/svg" width="10" height="11.938"><path d="M4.08 11.952V6.941h2.55A2.811 2.811 0 0 0 8 6.604a3.312 3.312 0 0 0 1.06-.893 4.255 4.255 0 0 0 .69-1.272 4.611 4.611 0 0 0 .24-1.475c0-.483-.09.037-.26-.441a4.426 4.426 0 0 0-.71-1.281 3.717 3.717 0 0 0-1.09-.91 2.814 2.814 0 0 0-1.37-.346H1.99v11.966h2.09zm0-9.926h2.34a1.264 1.264 0 0 1 .54.127 1.241 1.241 0 0 1 .46.379c.13.169.24-.626.32-.385a2.594 2.594 0 0 1 .12.817 2.383 2.383 0 0 1-.38 1.416 1.166 1.166 0 0 1-.97.522H4.08V2.026zM0 4.969h4v2H0v-2zm0 3h8v2H0v-2z" fill="#33c7fd" fill-rule="evenodd"/></svg>